<?xml version="1.0" standalone="no"?><!DOCTYPE svg PUBLIC "-//W3C//DTD SVG 1.1//EN" "http://www.w3.org/Graphics/SVG/1.1/DTD/svg11.dtd"><svg t="1605840687423" class="icon" viewBox="0 0 1024 1024" version="1.1" xmlns="http://www.w3.org/2000/svg" p-id="2710" xmlns:xlink="http://www.w3.org/1999/xlink" width="128" height="128"><defs><style type="text/css"></style></defs><path d="M34.88 513.28c0 263.093 213.28 476.373 476.373 476.373s476.373-213.28 476.373-476.373c0-263.093-213.28-476.373-476.373-476.373-263.093 0-476.373 213.28-476.373 476.373z" fill="#75EAE4" p-id="2711"></path><path d="M511.253 1010.987c-67.2 0-132.373-13.12-193.707-39.147-59.307-25.067-112.533-60.907-158.187-106.667s-81.6-98.88-106.667-158.187c-25.92-61.333-39.147-126.507-39.147-193.707s13.12-132.373 39.147-193.707c25.067-59.307 60.907-112.533 106.667-158.187s98.88-81.6 158.187-106.667c61.44-25.92 126.613-39.040 193.707-39.040 67.2 0 132.373 13.12 193.707 39.147 59.307 25.067 112.533 60.907 158.187 106.667 45.653 45.653 81.6 98.88 106.667 158.187 25.92 61.333 39.147 126.507 39.147 193.707s-13.12 132.373-39.147 193.707c-25.067 59.307-60.907 112.533-106.667 158.187-45.653 45.653-98.88 81.6-158.187 106.667-61.333 25.92-126.507 39.040-193.707 39.040zM511.253 58.347c-61.44 0-121.067 12.053-177.067 35.733-54.187 22.933-102.827 55.68-144.64 97.493s-74.56 90.453-97.493 144.64c-23.68 56.107-35.733 115.627-35.733 177.067s12.053 121.067 35.733 177.067c22.933 54.187 55.68 102.827 97.493 144.64s90.453 74.56 144.64 97.493c56.107 23.68 115.627 35.733 177.067 35.733s121.067-12.053 177.067-35.733c54.187-22.933 102.827-55.68 144.64-97.493s74.56-90.453 97.493-144.64c23.68-56.107 35.733-115.627 35.733-177.067s-12.053-121.067-35.733-177.067c-22.933-54.187-55.68-102.827-97.493-144.64s-90.453-74.56-144.64-97.493c-56-23.787-115.627-35.733-177.067-35.733z" fill="#05C4CE" p-id="2712"></path><path d="M75.84 485.76c0 247.894 204.11 448.853 455.893 448.853s455.893-200.959 455.893-448.853c0-247.894-204.11-448.853-455.893-448.853-251.783 0-455.893 200.959-455.893 448.853z" fill="#FFFFFF" p-id="2713"></path><path d="M511.253 340.8c-44.907 0-81.387-36.48-81.387-81.387 0-11.733 9.6-21.333 21.333-21.333s21.333 9.6 21.333 21.333c0 21.333 17.387 38.72 38.72 38.72s38.72-17.387 38.72-38.72c0-11.733 9.6-21.333 21.333-21.333s21.333 9.6 21.333 21.333c0 44.907-36.48 81.387-81.387 81.387z" fill="#05C4CE" p-id="2714"></path><path d="M207.787 281.92c0 16.554 25.598 29.973 57.173 29.973s57.173-13.42 57.173-29.973c0-16.554-25.598-29.973-57.173-29.973-31.575 0-57.173 13.42-57.173 29.973z" fill="#75EAE4" p-id="2715"></path><path d="M700.48 281.92c0 16.554 25.598 29.973 57.173 29.973s57.173-13.42 57.173-29.973c0-16.554-25.598-29.973-57.173-29.973-31.575 0-57.173 13.42-57.173 29.973z" fill="#75EAE4" p-id="2716"></path><path d="M511.253 1010.987c-67.2 0-132.373-13.12-193.707-39.147-59.307-25.067-112.533-60.907-158.187-106.667s-81.6-98.88-106.667-158.187c-25.92-61.333-39.147-126.507-39.147-193.707s13.12-132.373 39.147-193.707c25.067-59.307 60.907-112.533 106.667-158.187s98.88-81.6 158.187-106.667c61.44-25.92 126.613-39.040 193.707-39.040 67.2 0 132.373 13.12 193.707 39.147 59.307 25.067 112.533 60.907 158.187 106.667 45.653 45.653 81.6 98.88 106.667 158.187 25.92 61.333 39.147 126.507 39.147 193.707s-13.12 132.373-39.147 193.707c-25.067 59.307-60.907 112.533-106.667 158.187-45.653 45.653-98.88 81.6-158.187 106.667-61.333 25.92-126.507 39.040-193.707 39.040zM511.253 58.347c-61.44 0-121.067 12.053-177.067 35.733-54.187 22.933-102.827 55.68-144.64 97.493s-74.56 90.453-97.493 144.64c-23.68 56.107-35.733 115.627-35.733 177.067s12.053 121.067 35.733 177.067c22.933 54.187 55.68 102.827 97.493 144.64s90.453 74.56 144.64 97.493c56.107 23.68 115.627 35.733 177.067 35.733s121.067-12.053 177.067-35.733c54.187-22.933 102.827-55.68 144.64-97.493s74.56-90.453 97.493-144.64c23.68-56.107 35.733-115.627 35.733-177.067s-12.053-121.067-35.733-177.067c-22.933-54.187-55.68-102.827-97.493-144.64s-90.453-74.56-144.64-97.493c-56-23.787-115.627-35.733-177.067-35.733z" fill="#05C4CE" p-id="2717"></path><path d="M440.64 199.68c0 17.92-30.187-5.013-67.52-5.013s-67.52 22.933-67.52 5.013 30.187-55.040 67.52-55.040 67.52 37.013 67.52 55.040zM706.347 199.68c0 17.92-30.187-5.013-67.52-5.013s-67.52 22.933-67.52 5.013 30.187-55.040 67.52-55.040c37.227 0 67.52 37.013 67.52 55.040z" fill="#05C4CE" p-id="2718"></path></svg>