<?xml version="1.0" standalone="no"?><!DOCTYPE svg PUBLIC "-//W3C//DTD SVG 1.1//EN" "http://www.w3.org/Graphics/SVG/1.1/DTD/svg11.dtd"><svg t="1606029579604" class="icon" viewBox="0 0 1024 1024" version="1.1" xmlns="http://www.w3.org/2000/svg" p-id="4077" xmlns:xlink="http://www.w3.org/1999/xlink" width="128" height="128"><defs><style type="text/css"></style></defs><path d="M555.35 555.35l3.071 45.738 90.112-44.032L795.648 302.08a54.613 54.613 0 0 0-40.96-81.579 54.613 54.613 0 0 1 0 54.614L607.573 530.09zM177.834 680.276l-7.168 2.39s4.096 32.426 12.629 96.938q149.163-115.712 324.267-2.048a247.808 247.808 0 0 1 326.314-2.048l14.336-97.621-6.144-4.096-8.192 54.955a247.808 247.808 0 0 0-326.314 2.048q-175.104-113.664-324.267 2.048z" fill="#8a8a8a" p-id="4078"></path><path d="M527.019 661.504a292.864 292.864 0 0 1 324.949 18.432l-18.773 124.245a247.808 247.808 0 0 0-326.315-9.216Q336.213 675.5 182.955 785.75q-8.534-124.928-8.192-124.928a286.72 286.72 0 0 1 266.922-27.306 268.63 268.63 0 0 0-242.346-81.92 17.067 17.067 0 0 1-4.438-34.134 304.128 304.128 0 0 1 288.427 110.592 271.019 271.019 0 0 0-207.872-192.17 17.067 17.067 0 0 1 7.85-34.134C414.72 433.493 496.64 519.851 527.02 659.456z m68.266-164.523l34.134 21.504 136.533-234.154a20.48 20.48 0 1 0-34.133-20.48z m51.542 60.416l-88.064 43.35-6.827-97.28 147.797-256a54.613 54.613 0 1 1 94.55 54.613l-145.75 254.976zM808.96 736.94l6.144-40.619c-90.112-55.979-183.979-54.955-287.403 3.755l-18.09 10.24-17.408-11.606a257.024 257.024 0 0 0-282.283-18.773v9.899l2.39 37.888c94.89-45.056 192.853-37.547 292.863 24.917a296.619 296.619 0 0 1 73.046-34.133 268.97 268.97 0 0 1 229.376 26.965z" fill="#8a8a8a" p-id="4079"></path></svg>